<?xml version="1.0" encoding="utf-8"?>
<!-- Generator: Adobe Illustrator 17.0.0, SVG Export Plug-In . SVG Version: 6.00 Build 0)  -->
<!DOCTYPE svg PUBLIC "-//W3C//DTD SVG 1.1//EN" "http://www.w3.org/Graphics/SVG/1.1/DTD/svg11.dtd">
<svg version="1.1" id="Layer_1" xmlns="http://www.w3.org/2000/svg" xmlns:xlink="http://www.w3.org/1999/xlink" x="0px" y="0px"
	 width="501px" height="500px" viewBox="0 0 501 500" enable-background="new 0 0 501 500" xml:space="preserve">
<g>
	<path fill="#00B4DF" d="M349,246.217h-69.49v-50.968H349V246.217z M343.5,424.751h-63.99v-50.968h63.99V424.751z M316.5,373.783
		h41.555c35.17,0,63.783-28.613,63.783-63.783s-28.614-63.783-63.783-63.783H324v-50.968h34.055
		c63.274,0,114.751,51.477,114.751,114.751s-51.478,114.751-114.751,114.751H316.5V373.783z"/>
</g>
<g>
	<path fill="#00B4DF" d="M222.933,424.751H147.5v-50.968h75.433L222.933,424.751z M147.5,195.249h75.433v50.968H147.5V195.249z
		 M178.5,246.217h-35.555c-35.17,0-63.783,28.613-63.783,63.783c0,35.171,28.613,63.783,63.783,63.783H174v50.968h-31.055
		c-63.274,0-114.751-51.477-114.751-114.751s51.477-114.751,114.751-114.751H178.5V246.217z"/>
</g>
<g>
	<g>
		<g>
			<path fill="#00B4DF" d="M134.987,302.5c0-13.75,11.25-25,25-25H340.5c13.75,0,25,11.25,25,25v15c0,13.75-11.25,25-25,25H159.987
				c-13.75,0-25-11.25-25-25V302.5z"/>
		</g>
	</g>
</g>
</svg>
