<?xml version="1.0" encoding="utf-8"?>
<!-- Generator: Adobe Illustrator 17.0.0, SVG Export Plug-In . SVG Version: 6.00 Build 0)  -->
<!DOCTYPE svg PUBLIC "-//W3C//DTD SVG 1.1//EN" "http://www.w3.org/Graphics/SVG/1.1/DTD/svg11.dtd">
<svg version="1.1" id="Layer_1" xmlns="http://www.w3.org/2000/svg" xmlns:xlink="http://www.w3.org/1999/xlink" x="0px" y="0px"
	 width="501px" height="500px" viewBox="0 0 501 500" enable-background="new 0 0 501 500" xml:space="preserve">
<g>
	<path fill="#00B3DD" d="M347.983,402.478h-79.842v-45.961h79.842c31.715,0,57.517-25.802,57.517-57.517
		s-25.802-57.517-57.517-57.517h-79.842v-45.961h79.842c57.058,0,103.478,46.421,103.478,103.479S405.041,402.478,347.983,402.478z"
		/>
	<path fill="#00B3DD" d="M235.161,402.478h-81.144c-57.058,0-103.478-46.421-103.478-103.478s46.42-103.479,103.478-103.479h81.144
		v45.961h-81.144c-31.716,0-57.517,25.802-57.517,57.517s25.802,57.517,57.517,57.517h81.144
		C235.161,356.517,235.161,402.478,235.161,402.478z"/>
	<g>
		<g>
			<g>
				<path fill="#00B3DD" d="M151.13,290.715c0-11,9-20,20-20h159.281c11,0,20,9,20,20v16.571c0,11-9,20-20,20H171.13
					c-11,0-20-9-20-20V290.715z"/>
			</g>
		</g>
	</g>
</g>
</svg>
