<?xml version="1.0" encoding="utf-8"?>
<!-- Generator: Adobe Illustrator 17.0.0, SVG Export Plug-In . SVG Version: 6.00 Build 0)  -->
<!DOCTYPE svg PUBLIC "-//W3C//DTD SVG 1.1//EN" "http://www.w3.org/Graphics/SVG/1.1/DTD/svg11.dtd">
<svg version="1.1" id="Layer_1" xmlns="http://www.w3.org/2000/svg" xmlns:xlink="http://www.w3.org/1999/xlink" x="0px" y="0px"
	 width="501px" height="500px" viewBox="0 0 501 500" enable-background="new 0 0 501 500" xml:space="preserve">
<path fill="#00B3DD" d="M358.055,404.751H269.51v-50.968h88.545c35.17,0,63.783-28.613,63.783-63.783
	c0-35.17-28.614-63.783-63.783-63.783H269.51v-50.968h88.545c63.274,0,114.751,51.477,114.751,114.751
	S421.328,404.751,358.055,404.751z"/>
<path fill="#00B3DD" d="M232.933,404.751h-89.988c-63.274,0-114.751-51.477-114.751-114.751s51.477-114.751,114.751-114.751h89.988
	v50.968h-89.988c-35.17,0-63.783,28.613-63.783,63.783c0,35.171,28.613,63.783,63.783,63.783h89.988V404.751z"/>
<g>
	<rect x="139.747" y="258.631" fill="#00B3DD" width="220.993" height="62.738"/>
</g>
</svg>
