<?xml version="1.0" encoding="utf-8"?>
<!-- Generator: Adobe Illustrator 17.0.0, SVG Export Plug-In . SVG Version: 6.00 Build 0)  -->
<!DOCTYPE svg PUBLIC "-//W3C//DTD SVG 1.1//EN" "http://www.w3.org/Graphics/SVG/1.1/DTD/svg11.dtd">
<svg version="1.1" id="Layer_1" xmlns="http://www.w3.org/2000/svg" xmlns:xlink="http://www.w3.org/1999/xlink" x="0px" y="0px"
	 width="512px" height="512px" viewBox="0 0 512 512" enable-background="new 0 0 512 512" xml:space="preserve">
<path fill="#FFD110" enable-background="new    " d="M415.87,95.972v12.059L96.13,268.291v-70.587
	c0-14.064,11.372-25.435,25.426-25.435h76.306L390.435,70.537C390.435,70.537,415.87,67.362,415.87,95.972z M96.13,354.296
	c0,5.793,1.931,11.13,5.189,15.4c4.632,6.099,11.975,10.035,20.237,10.035h76.306l192.574,101.731c0,0,25.435,3.175,25.435-25.435
	V161.879L96.13,322.131V354.296z M463.156,137.824L27.335,356.265l21.508,42.912l435.821-218.441L463.156,137.824z"/>
</svg>
