<?xml version="1.0" encoding="utf-8"?>
<!-- Generator: Adobe Illustrator 17.0.0, SVG Export Plug-In . SVG Version: 6.00 Build 0)  -->
<!DOCTYPE svg PUBLIC "-//W3C//DTD SVG 1.1//EN" "http://www.w3.org/Graphics/SVG/1.1/DTD/svg11.dtd">
<svg version="1.1" id="Layer_1" xmlns="http://www.w3.org/2000/svg" xmlns:xlink="http://www.w3.org/1999/xlink" x="0px" y="0px"
	 width="512px" height="512px" viewBox="0 0 512 512" enable-background="new 0 0 512 512" xml:space="preserve">
<g>
</g>
<line opacity="0.75" fill="none" x1="160.471" y1="317.73" x2="188.161" y2="303.85"/>
<g>
</g>
<path opacity="0.75" fill="#FF3E3E" d="M404.391,195.48"/>
<g opacity="0.75">
	<path fill="#FF3E3E" d="M188.16,169.314v-2.244c0-13.75,10.159-33.833,22.575-39.74l171.08-81.39
		c12.417-5.907,22.575,4.086,22.575,17.317l0.001-1.757v28.27l-216.23,108.38V168.5L188.16,169.314z"/>
	<g>
		<path fill="#FF3E3E" d="M160.471,173.469v-4.938c0-13.75-11.25-31-25-31h-11.12c-13.75,0-25,17.25-25,31v16.938L99.35,184.5v58.16
			l61.121-30.63V172.5V173.469z"/>
	</g>
	<path fill="#FF3E3E" d="M99.35,348.47c0,13.75,11.25,27,25,27h11.12c13.75,0,25-11.25,25-25v-33.792l27.691-13.363v46.614
		c0,13.75,10.159,29.833,22.575,35.74l171.079,81.39c12.416,5.907,22.575-0.51,22.575-14.26V194.946l80.274-40.21l-21.508-42.912
		L27.335,330.265l21.508,42.912L99.35,348.37V348.47z"/>
</g>
</svg>
