<?xml version="1.0" encoding="utf-8"?>
<!-- Generator: Adobe Illustrator 17.0.0, SVG Export Plug-In . SVG Version: 6.00 Build 0)  -->
<!DOCTYPE svg PUBLIC "-//W3C//DTD SVG 1.1//EN" "http://www.w3.org/Graphics/SVG/1.1/DTD/svg11.dtd">
<svg version="1.1" id="Layer_1" xmlns="http://www.w3.org/2000/svg" xmlns:xlink="http://www.w3.org/1999/xlink" x="0px" y="0px"
	 width="512px" height="512px" viewBox="0 0 512 512" enable-background="new 0 0 512 512" xml:space="preserve">
<g>
	<path fill="#FFBE00" d="M210.567,178.226c-12.324,6.098-22.407-0.162-22.407-13.912v-2.244c0-13.75,10.159-29.833,22.575-35.74
		l171.08-81.39c12.417-5.907,22.575,0.086,22.575,13.317s-10.083,29.046-22.407,35.145L210.567,178.226z"/>
</g>
<polygon fill="#FFBE00" points="404.392,61.5 404.392,89.77 188.161,198.15 188.161,168.5 "/>
<polygon fill="#FFBE00" points="99.351,184.5 99.351,242.66 160.471,212.03 160.471,172.5 "/>
<g>
	<path fill="#FFBE00" d="M135.939,196.285c13.492-2.649,24.532-16.066,24.532-29.816v-4.938c0-13.75-11.25-25-25-25h-11.12
		c-13.75,0-25,11.25-25,25v16.938c0,13.75,11.039,22.833,24.532,20.184L135.939,196.285z"/>
</g>
<g>
	<path fill="#FFBE00" d="M210.511,252.114c-12.293,6.161-22.35,22.451-22.35,36.201v61.614c0,13.75,10.159,29.833,22.575,35.74
		l171.079,81.39c12.417,5.907,22.575-0.51,22.575-14.26V179.946c0-13.75-10.058-19.959-22.35-13.799L210.511,252.114z"/>
</g>
<line fill="none" x1="160.471" y1="317.73" x2="188.161" y2="303.85"/>
<g>
	<path fill="#FFBE00" d="M121.699,309.114c-12.292,6.162-22.349,22.454-22.349,36.204v5.152c0,13.75,11.25,25,25,25h11.12
		c13.75,0,25-11.25,25-25v-35.792c0-13.75-10.057-19.958-22.349-13.796L121.699,309.114z"/>
</g>
<polygon fill="#FFBE00" points="404.391,195.48 484.665,154.736 463.157,111.824 27.336,330.265 48.844,373.177 99.351,348.37 "/>
</svg>
