<?xml version="1.0" encoding="utf-8"?>
<!-- Generator: Adobe Illustrator 17.0.0, SVG Export Plug-In . SVG Version: 6.00 Build 0)  -->
<!DOCTYPE svg PUBLIC "-//W3C//DTD SVG 1.1//EN" "http://www.w3.org/Graphics/SVG/1.1/DTD/svg11.dtd">
<svg version="1.1" id="Layer_1" xmlns="http://www.w3.org/2000/svg" xmlns:xlink="http://www.w3.org/1999/xlink" x="0px" y="0px"
	 width="512px" height="512px" viewBox="0 0 512 512" enable-background="new 0 0 512 512" xml:space="preserve">
<g opacity="0.75">
	<path fill="#FF3E3E" d="M160.471,161.531c0-13.75-11.25-25-25-25h-11.12c-13.75,0-25,11.25-25,25V184.5v58.16l61.12-30.63V161.531z
		"/>
</g>
<path opacity="0.75" fill="#FF3E3E" enable-background="new    " d="M404.392,89.77L188.161,198.15l-0.001-36.08
	c0-13.75,10.159-29.833,22.575-35.74l171.08-81.39c12.417-5.907,22.575,0.086,22.575,13.317L404.392,89.77z"/>
<path opacity="0.75" fill="#FF3E3E" enable-background="new    " d="M188.161,300.85v48.079c0,13.75,10.159,29.833,22.575,35.74
	l171.079,81.39c12.417,5.907,22.575-0.51,22.575-14.26l0.002-258.649l80.273-38.414l-21.508-42.912L27.336,330.265l21.508,42.912
	l50.506-26.859v5.152c0,13.75,11.25,25,25,25h11.12c13.75,0,25-11.25,25-25v-35.792L188.161,300.85z"/>
</svg>
