<?xml version="1.0" encoding="utf-8"?>
<!-- Generator: Adobe Illustrator 17.0.0, SVG Export Plug-In . SVG Version: 6.00 Build 0)  -->
<!DOCTYPE svg PUBLIC "-//W3C//DTD SVG 1.1//EN" "http://www.w3.org/Graphics/SVG/1.1/DTD/svg11.dtd">
<svg version="1.1" id="Layer_1" xmlns="http://www.w3.org/2000/svg" xmlns:xlink="http://www.w3.org/1999/xlink" x="0px" y="0px"
	 width="512px" height="512px" viewBox="0 0 512 512" enable-background="new 0 0 512 512" xml:space="preserve">
<path fill="#E74C3C" d="M415.87,75.972v12.059L96.13,248.291v-70.587c0-14.064,11.372-25.435,25.426-25.435l76.306,0L390.435,50.537
	C390.435,50.537,415.87,47.362,415.87,75.972z M96.13,334.296c0,5.793,1.931,11.13,5.189,15.4
	c4.632,6.099,11.975,10.035,20.237,10.035h76.306l192.574,101.731c0,0,25.435,3.175,25.435-25.435l0-294.148L96.13,302.131V334.296z
	 M463.156,117.824L27.335,336.265l21.508,42.912l435.821-218.441L463.156,117.824z"/>
</svg>
