<?xml version="1.0" encoding="utf-8"?>
<!-- Generator: Adobe Illustrator 17.0.0, SVG Export Plug-In . SVG Version: 6.00 Build 0)  -->
<!DOCTYPE svg PUBLIC "-//W3C//DTD SVG 1.1//EN" "http://www.w3.org/Graphics/SVG/1.1/DTD/svg11.dtd">
<svg version="1.1"
	 id="Layer_1" xmlns:sodipodi="http://sodipodi.sourceforge.net/DTD/sodipodi-0.dtd" xmlns:cc="http://creativecommons.org/ns#" xmlns:dc="http://purl.org/dc/elements/1.1/" xmlns:rdf="http://www.w3.org/1999/02/22-rdf-syntax-ns#" xmlns:inkscape="http://www.inkscape.org/namespaces/inkscape" xmlns:svg="http://www.w3.org/2000/svg" inkscape:version="0.46" sodipodi:version="0.32" inkscape:output_extension="org.inkscape.output.svg.inkscape"
	 xmlns="http://www.w3.org/2000/svg" xmlns:xlink="http://www.w3.org/1999/xlink" x="0px" y="0px" width="744px" height="750px"
	 viewBox="0 0 744 750" enable-background="new 0 0 744 750" xml:space="preserve">
<path opacity="0.75" fill="#FF3E3E" enable-background="new    " d="M639.994,178.549c-3.068-1.325-6.204-2.552-9.419-3.692
	c-19.811-7.091-42.146-11.075-65.775-11.075c-23.63,0-45.964,3.984-65.775,11.075c-48.779,17.435-82.294,53.678-82.294,95.541
	c0,36.389,25.324,68.532,63.983,87.759c23.883,11.893,52.86,18.857,84.087,18.857c81.778,0,148.07-47.736,148.07-106.616
	C712.87,231.282,683.61,197.084,639.994,178.549z M634.832,53.222c-16.724-20.026-41.892-32.766-70.032-32.766
	c-14.824,0-28.821,3.536-41.191,9.808c-29.688,15.048-50.025,45.847-50.025,81.398c0,24.535,9.682,46.801,25.441,63.194
	c16.597,17.279,39.935,28.022,65.775,28.022s49.178-10.743,65.775-28.022c15.76-16.393,25.441-38.659,25.441-63.194
	C656.016,89.426,648.059,69.05,634.832,53.222z"/>
<g id="layer1" inkscape:label="Ebene 1" inkscape:groupmode="layer">
	<g>
		<g id="g7561_6_">
			
				<g id="path3346_8_" sodipodi:ry="58.57143" sodipodi:cx="387.14285" sodipodi:rx="341.42856" sodipodi:cy="342.36218" sodipodi:type="arc">
				<path fill="#9B59B6" d="M458.36,433.31v271.2c0,12.54-10.18,21.48-22.61,19.86l-138.12-58.41
					c-10.15-7.37-18.44-23.68-18.44-36.22V427.76c0-12.54-6.92-30.38-15.37-39.65L20.9,109.08c-8.45-9.27-5.78-20.53,5.93-25.02
					c0,0,130.17-58.62,345.18-58.62c10.35,0,20.51,0.14,30.46,0.39c-49.05,45.98-79.7,111.36-79.7,183.9
					C322.77,306.92,377.78,391.26,458.36,433.31z"/>
			</g>
		</g>
	</g>
</g>
</svg>
