<?xml version="1.0" encoding="utf-8"?>
<!-- Generator: Adobe Illustrator 17.0.0, SVG Export Plug-In . SVG Version: 6.00 Build 0)  -->
<!DOCTYPE svg PUBLIC "-//W3C//DTD SVG 1.1//EN" "http://www.w3.org/Graphics/SVG/1.1/DTD/svg11.dtd">
<svg version="1.1" id="Layer_1" xmlns="http://www.w3.org/2000/svg" xmlns:xlink="http://www.w3.org/1999/xlink" x="0px" y="0px"
	 width="500px" height="500px" viewBox="0 0 500 500" enable-background="new 0 0 500 500" xml:space="preserve">
<g>
	<g>
		<path fill="#F1C40F" d="M177.316,123.131c0,40.158,32.525,72.685,72.683,72.685s72.685-32.527,72.685-72.685
			s-32.526-72.683-72.685-72.683C209.841,50.448,177.316,82.973,177.316,123.131z"/>
		<polyline fill="#F1C40F" points="250,441.123 250,277.585 250,277.584 		"/>
		<path fill="#F1C40F" d="M177.161,476V252.147c0-11.083,8.91-19.991,19.991-19.991h105.696c11.081,0,19.991,8.908,19.991,19.991
			v223.852L177.161,476z"/>
	</g>
	<path fill="#F1C40F" d="M322.839,256.157v223.852c0,11.083-8.91,19.991-19.991,19.991H197.152
		c-11.081,0-19.991-8.908-19.991-19.991V256.156"/>
</g>
</svg>
