<?xml version="1.0" encoding="utf-8"?>
<!-- Generator: Adobe Illustrator 17.0.0, SVG Export Plug-In . SVG Version: 6.00 Build 0)  -->
<!DOCTYPE svg PUBLIC "-//W3C//DTD SVG 1.1//EN" "http://www.w3.org/Graphics/SVG/1.1/DTD/svg11.dtd">
<svg version="1.1" id="Layer_1" xmlns="http://www.w3.org/2000/svg" xmlns:xlink="http://www.w3.org/1999/xlink" x="0px" y="0px"
	 width="500px" height="500px" viewBox="0 0 500 500" enable-background="new 0 0 500 500" xml:space="preserve">
<path opacity="0.9" fill="#FFB504" enable-background="new    " d="M336.695,91.807c0,46.471-37.639,84.098-84.098,84.098
	S168.5,138.278,168.5,91.807c0-46.459,37.639-84.087,84.098-84.087S336.695,45.348,336.695,91.807z"/>
<g opacity="0.9" enable-background="new    ">
	<path fill="#FFB504" d="M221.68,494.637c-27.5,0-50-22.5-50-50l0-105.01c0-27.5-13.37-60.362-29.711-73.027
		c-16.341-12.665-7.522-26.752,19.598-31.306l42.945-7.211c27.12-4.554,67.791-2.931,90.38,3.605
		c22.589,6.537,41.07,22.247,41.07,34.911c0,12.665,0,45.527,0,73.027l0,105.01c0,27.5-22.5,50-50,50L221.68,494.637z"/>
</g>
</svg>
