<?xml version="1.0" encoding="utf-8"?>
<!-- Generator: Adobe Illustrator 17.0.0, SVG Export Plug-In . SVG Version: 6.00 Build 0)  -->
<!DOCTYPE svg PUBLIC "-//W3C//DTD SVG 1.1//EN" "http://www.w3.org/Graphics/SVG/1.1/DTD/svg11.dtd">
<svg version="1.1" id="Layer_1" xmlns="http://www.w3.org/2000/svg" xmlns:xlink="http://www.w3.org/1999/xlink" x="0px" y="0px"
	 width="500px" height="500px" viewBox="0 0 500 500" enable-background="new 0 0 500 500" xml:space="preserve">
<path opacity="0.9" fill="#FFB504" enable-background="new    " d="M332.795,97.347c0,44.855-36.33,81.175-81.174,81.175
	s-81.174-36.319-81.174-81.175c0-44.844,36.33-81.164,81.174-81.164S332.795,52.503,332.795,97.347z"/>
<g opacity="0.9" enable-background="new    ">
	<path fill="#FFB504" d="M223.515,486.174c-27.5,0-50-22.5-50-50l0-97.884c0-27.5-12.905-62.252-28.679-77.226
		c-15.773-14.974-6.279-29.348,21.098-31.941l37.089-3.513c27.377-2.593,67.616,0.447,89.42,6.757
		c21.804,6.309,39.643,21.473,39.643,33.698c0,12.224,0,44.726,0,72.226l0,97.884c0,27.5-22.5,50-50,50L223.515,486.174z"/>
</g>
</svg>
