<?xml version="1.0" encoding="utf-8"?>
<!-- Generator: Adobe Illustrator 17.0.0, SVG Export Plug-In . SVG Version: 6.00 Build 0)  -->
<!DOCTYPE svg PUBLIC "-//W3C//DTD SVG 1.1//EN" "http://www.w3.org/Graphics/SVG/1.1/DTD/svg11.dtd">
<svg version="1.1" xmlns="http://www.w3.org/2000/svg" xmlns:xlink="http://www.w3.org/1999/xlink" x="0px" y="0px" width="64px"
	 height="64px" viewBox="0 0 64 64" enable-background="new 0 0 64 64" xml:space="preserve">
<g id="svg2383" xmlns:svg="http://www.w3.org/2000/svg" display="none">
	<g id="layer3">
	</g>
	<g id="layer1" display="inline">
		<path id="path2454" fill="#AFDDE9" stroke="#AFDDE9" stroke-width="0.227" stroke-linecap="round" stroke-linejoin="round" d="
			M13.627,45.318L3.218,45.27V27.908V10.545h14.364h14.364V28v17.455l-3.955-0.044C25.816,45.386,19.352,45.345,13.627,45.318
			L13.627,45.318z"/>
		<path id="path2456" fill="#37C8AB" stroke="#37C8AB" stroke-width="0.2275" stroke-linecap="round" stroke-linejoin="round" d="
			M33.128,30.091V10.546h14.181h14.181v19.545v19.545H47.309H33.128V30.091z"/>
		<path id="path2458" fill="#3771C8" stroke="#3771C8" stroke-width="0.227" stroke-linecap="round" stroke-linejoin="round" d="
			M3.218,47.971v-1.666l6.03,0.12c3.316,0.066,9.78,0.12,14.364,0.12h8.334v1.545v1.545H17.582H3.218V47.971z"/>
	</g>
	<g id="layer2" display="inline">
		<text transform="matrix(1 0 0 1 9.4546 49.2727)" font-family="'ArialMT'" font-size="3.5">Chatbar</text>
		<text transform="matrix(0 -1 1 0 51.7437 43.0049)" font-family="'ArialMT'" font-size="12">Tree</text>
		
			<rect id="rect2393" x="2.545" y="9.818" fill="none" stroke="#000000" stroke-width="1.247" stroke-linecap="round" stroke-linejoin="round" width="59.636" height="40.545"/>
		<path id="path2403" fill="none" stroke="#000000" d="M32.545,50.182V9.818"/>
		<path id="path2405" fill="none" stroke="#000000" d="M2.545,45.818l30,0.182"/>
		<text transform="matrix(0 -1 1 0 20.5618 37.8232)" font-family="'ArialMT'" font-size="12">Log</text>
	</g>
</g>
<g id="Layer_2">
	<rect x="0.62" y="12.388" opacity="0.25" fill="#7F7F7F" width="62.764" height="39.228"/>
	<g opacity="0.75">
		<g>
			<rect x="3.902" y="15.646" opacity="0.5" fill="#7F7F7F" width="18.026" height="32.606"/>
		</g>
		<g>
			<rect x="22.987" y="15.698" opacity="0.5" fill="#7F7F7F" width="18.026" height="32.606"/>
		</g>
		<g>
			<rect x="42.072" y="15.698" opacity="0.5" fill="#7F7F7F" width="18.026" height="32.606"/>
		</g>
	</g>
	<g>
		<path fill="#7F7F7F" d="M29.365,36.056c-0.09-0.232-0.159-0.494-0.208-0.785c-0.049-0.29-0.074-0.564-0.074-0.824
			c0-0.411,0.04-0.787,0.121-1.126s0.201-0.659,0.362-0.959c0.161-0.299,0.362-0.585,0.603-0.858
			c0.242-0.272,0.523-0.543,0.845-0.811c0.339-0.286,0.637-0.552,0.892-0.798c0.255-0.246,0.471-0.492,0.65-0.737
			c0.179-0.246,0.313-0.501,0.402-0.765c0.089-0.264,0.134-0.557,0.134-0.878c0-0.277-0.049-0.534-0.147-0.771
			c-0.098-0.237-0.239-0.44-0.422-0.61c-0.183-0.17-0.407-0.304-0.67-0.402c-0.264-0.098-0.557-0.147-0.878-0.147
			c-0.697,0-1.421,0.146-2.172,0.436c-0.751,0.291-1.461,0.731-2.132,1.321v-4.036c0.688-0.411,1.439-0.719,2.252-0.925
			c0.813-0.206,1.654-0.308,2.521-0.308c0.832,0,1.604,0.091,2.32,0.275c0.715,0.183,1.339,0.471,1.87,0.865
			c0.532,0.394,0.948,0.896,1.247,1.508c0.299,0.613,0.449,1.348,0.449,2.206c0,0.545-0.063,1.039-0.188,1.482
			c-0.125,0.442-0.309,0.86-0.55,1.253c-0.241,0.394-0.541,0.771-0.898,1.133c-0.357,0.362-0.769,0.735-1.233,1.12
			c-0.313,0.259-0.588,0.501-0.824,0.724c-0.237,0.224-0.435,0.445-0.591,0.664c-0.156,0.219-0.274,0.452-0.355,0.698
			c-0.08,0.246-0.12,0.525-0.12,0.838c0,0.214,0.028,0.433,0.087,0.657s0.137,0.411,0.234,0.563H29.365z M31.323,41.929
			c-0.715,0-1.31-0.215-1.783-0.644c-0.474-0.447-0.711-0.975-0.711-1.583c0-0.625,0.237-1.147,0.711-1.568
			c0.474-0.42,1.068-0.63,1.783-0.63c0.706,0,1.292,0.21,1.757,0.63c0.465,0.411,0.697,0.934,0.697,1.568
			c0,0.645-0.229,1.176-0.685,1.596C32.628,41.719,32.038,41.929,31.323,41.929z"/>
	</g>
</g>
</svg>
