<?xml version="1.0" encoding="utf-8"?>
<!-- Generator: Adobe Illustrator 17.0.0, SVG Export Plug-In . SVG Version: 6.00 Build 0)  -->
<!DOCTYPE svg PUBLIC "-//W3C//DTD SVG 1.1//EN" "http://www.w3.org/Graphics/SVG/1.1/DTD/svg11.dtd">
<svg version="1.1"
	 id="svg2" xmlns:dc="http://purl.org/dc/elements/1.1/" xmlns:cc="http://creativecommons.org/ns#" xmlns:inkscape="http://www.inkscape.org/namespaces/inkscape" xmlns:sodipodi="http://sodipodi.sourceforge.net/DTD/sodipodi-0.dtd" xmlns:rdf="http://www.w3.org/1999/02/22-rdf-syntax-ns#" xmlns:svg="http://www.w3.org/2000/svg" sodipodi:version="0.32" inkscape:version="0.47pre1" inkscape:output_extension="org.inkscape.output.svg.inkscape" sodipodi:docname="mumble.svg"
	 xmlns="http://www.w3.org/2000/svg" xmlns:xlink="http://www.w3.org/1999/xlink" x="0px" y="0px" width="400px" height="400px"
	 viewBox="0 0 400 400" enable-background="new 0 0 400 400" xml:space="preserve">
<g>
	<linearGradient id="SVGID_1_" gradientUnits="userSpaceOnUse" x1="200.7581" y1="397" x2="200.7581" y2="8.5164">
		<stop  offset="0" style="stop-color:#E0E0E1"/>
		<stop  offset="1" style="stop-color:#FFFFFF"/>
	</linearGradient>
	<circle fill="url(#SVGID_1_)" cx="200.758" cy="202.758" r="194.242"/>
</g>
<g>
	<g>
		<linearGradient id="SVGID_2_" gradientUnits="userSpaceOnUse" x1="200.7602" y1="345.1316" x2="200.7602" y2="28.8442">
			<stop  offset="0" style="stop-color:#0D0D0D"/>
			<stop  offset="1" style="stop-color:#4D4D4D"/>
		</linearGradient>
		<path fill="url(#SVGID_2_)" d="M100.02,344.127c-22.285-1.068-42.929-18.188-55.175-45.792c-6.217-13.98-9.503-29.97-9.503-46.24
			c0-29.521,10.954-57.512,29.302-74.875c6.894-6.799,14.54-11.821,22.74-14.939l0.645-0.245v-69.36
			c0.077-4.034,0.364-7.732,0.879-11.289l0.166-1.143h-0.069c0.274-1.728,0.631-3.428,1.064-5.067c0.029-0.137,0.042-0.2,0.063-0.27
			l0.235-0.969c2.402-9.429,7.597-18.236,15.019-25.455c11.613-11.664,28.299-18.62,44.646-18.62c0.484,0,0.971,0.006,1.455,0.018
			l1.376,0.042l1.323,0.021c11.354,0.893,17.143,3.86,17.143,8.817c-0.117,12.694,0.233,25.606,0.571,38.093
			c0.297,10.958,0.604,22.291,0.594,33.437c0.104,2.359,0.05,4.712-0.006,7.203c-0.193,8.52-0.394,17.329,5.975,24.053
			c5.44,6.871,13.962,7.76,20.773,7.76c1.211,0,2.483-0.031,3.998-0.096c0.888,0.111,1.794,0.167,2.694,0.167
			c5.886,0,11.823-2.416,16.291-6.629c3.781-3.886,6.038-8.817,6.383-13.914c0.154-21.165,0.177-43.757,0.074-73.316l0.479-15.099
			c0.165-1.228,0.926-4.95,2.349-6.246c2.185-2.003,5.103-3.371,7.808-3.661c0.063-0.008,0.098-0.015,0.134-0.015l0.135,0
			l0.135-0.037c1.291-0.362,2.598-0.545,3.884-0.545c0.557,0,1.114,0.035,1.656,0.104l0.1,0.013l0.101-0.008
			c1.6-0.119,3.231-0.18,4.85-0.18c24.484,0,46.669,12.911,56.519,32.893c4.113,7.316,5.417,16.409,6.397,25.104v74.297l0.644,0.246
			c4.317,1.646,8.521,3.839,12.495,6.521l0.219,0.219l0.12,0.001c0.021,0.014,0.041,0.029,0.062,0.043
			c24.332,15.765,39.42,47.505,39.42,82.863c0,10.228-1.271,20.275-3.778,29.863c-9.122,34.851-30.931,58.862-55.56,61.171
			l-18.562-0.004c-1.756,0-3.239-1.352-3.239-2.952c0.009-1.322,0.895-133.409,0.895-181.214c0.058-4.501,0.259-10.314,0.473-16.47
			c0.628-18.125,1.409-40.681-0.483-53.593c-0.331-2.268-1.884-8.461-1.95-8.724c-3.39-11.539-11.3-20.235-21.17-23.302
			c-2.159-0.574-4.344-0.858-6.532-0.858c-0.412,0-0.828,0.01-1.245,0.03l-0.952,0.046v67.153
			c1.079,11.655-3.406,23.522-11.995,31.839c-5.247,5.364-11.677,8.875-18.613,10.172c-6.153,0.743-12.374,0.839-17.098,0.839
			c-2.532,0-5.066-0.031-7.6-0.063c-2.542-0.031-5.083-0.063-7.623-0.063c-2.055,0-3.888,0.021-5.604,0.063
			c-0.983,0.081-1.922,0.121-2.853,0.121c-18.768,0-35.742-15.794-37.066-34.49c-0.386-21.448-0.298-39.538-0.229-54.073
			c0.036-7.373,0.066-13.741,0.037-19.59l-0.004-0.849l-0.838-0.134c-0.213-0.034-2.108-0.334-2.838-0.345l-0.282-0.002
			c-10.052,0-17.248,7.882-20.643,12.581c-0.089,0.129-0.125,0.181-0.155,0.232c-3.663,5.568-5.888,12.216-6.241,18.681
			c-0.192,14.355-0.129,28.841-0.067,42.851c0.04,9.072,0.081,18.453,0.052,27.693l0,0.194l0.072,0.18
			c0.014,0.052-0.01,0.246-0.026,0.375c-0.023,0.194-0.045,0.393-0.045,0.594V341.22c0,1.63-1.348,2.907-3.068,2.907l-3.744-0.004
			c-0.884,0-3.15,0.008-3.693,0.008L100.02,344.127z"/>
	</g>
	<g>
		<path fill="#191919" d="M250.303,28.844v2c11.414,0,22.659,2.932,32.519,8.479c10.268,5.777,18.257,14.026,23.102,23.856
			l0.024,0.049l0.027,0.047c3.989,7.09,5.276,16.046,6.244,24.622v73.552v1.378l1.288,0.491c4.22,1.608,8.329,3.749,12.216,6.364
			l0.451,0.446h0.225c11.41,7.434,21.062,18.817,27.917,32.929c7.106,14.628,10.862,31.563,10.862,48.974
			c0,10.141-1.26,20.104-3.745,29.61c-4.179,15.965-11.594,30.629-20.878,41.292c-9.879,11.346-21.536,17.959-33.716,19.128h-12.383
			h-0.157h-6.02c-1.214,0-2.24-0.894-2.24-1.938c0.009-1.329,0.895-133.42,0.895-181.202c0.058-4.504,0.259-10.315,0.472-16.468
			c0.629-18.162,1.412-40.766-0.493-53.765c-0.339-2.318-1.904-8.559-1.97-8.823l-0.01-0.039l-0.011-0.038
			c-3.475-11.822-11.633-20.771-21.822-23.937l-0.04-0.012l-0.041-0.011c-2.202-0.584-4.472-0.88-6.746-0.88
			c-0.429,0-0.861,0.01-1.296,0.031l-1.903,0.092v1.905v66.2v0.093l0.009,0.092c1.047,11.263-3.327,22.828-11.7,30.935l-0.02,0.019
			l-0.019,0.019c-5.068,5.181-11.291,8.589-18,9.857c-6.143,0.739-12.298,0.835-16.978,0.835c-2.523,0-5.096-0.032-7.584-0.062
			c-2.5-0.031-5.085-0.063-7.632-0.063c-2.065,0-3.908,0.021-5.635,0.064l-0.06,0.001l-0.059,0.005
			c-0.896,0.076-1.807,0.114-2.709,0.114c-18.245,0-34.749-15.34-36.066-33.509c-0.387-21.461-0.299-39.525-0.229-54.041
			c0.036-7.379,0.066-13.752,0.037-19.609l-0.008-1.697l-1.676-0.268c-0.506-0.081-2.217-0.346-2.98-0.357l-0.297-0.002
			c-7.78,0-15.399,4.615-21.453,12.995l-0.032,0.043l-0.033,0.052c-0.036,0.051-0.07,0.102-0.103,0.154
			c-3.775,5.749-6.054,12.565-6.416,19.195l-0.002,0.041l-0.001,0.041c-0.191,14.316-0.127,28.799-0.066,42.806
			c0.04,9.077,0.081,18.463,0.052,27.707l-0.001,0.389l0.065,0.161c-0.003,0.026-0.007,0.053-0.01,0.08
			c-0.024,0.193-0.053,0.433-0.053,0.715v181.238c0,1.07-0.908,1.908-2.063,1.908c0,0-1.985-0.005-3.749-0.005
			c-0.887,0-1.718,0.001-2.216,0.005c-0.444,0.003-0.936,0.004-1.476,0.004l-1.63-0.002l-2.21-0.002
			c-11.007-0.539-21.915-5.197-31.546-13.472c-9.187-7.893-17.059-18.864-22.766-31.729c-6.16-13.852-9.416-29.7-9.416-45.833
			c0-29.251,10.837-56.971,29.019-74.178c6.779-6.686,14.308-11.633,22.379-14.702l1.289-0.49v-1.379l0-68.633
			c0.076-4.012,0.361-7.67,0.869-11.183l0.331-2.287h-0.04c0.236-1.296,0.519-2.572,0.846-3.813l0.017-0.066l0.013-0.067
			c0.007-0.036,0.013-0.069,0.024-0.105l0.016-0.055l0.013-0.056l0.115-0.477l0.098-0.406c2.36-9.265,7.46-17.91,14.773-25.022
			c11.419-11.469,27.84-18.315,43.927-18.315c0.476,0,0.954,0.006,1.418,0.017l1.41,0.043l1.246,0.02
			c7.416,0.588,16.222,2.423,16.222,7.8c-0.118,12.722,0.233,25.644,0.571,38.141c0.297,10.951,0.604,22.275,0.594,33.408l0,0.045
			l0.002,0.045c0.101,2.281,0.048,4.617-0.008,7.091c-0.197,8.695-0.401,17.685,6.188,24.699c5.765,7.21,14.547,8.136,21.561,8.136
			c1.203,0,2.465-0.03,3.957-0.094c0.902,0.109,1.82,0.165,2.733,0.165c6.14,0,12.328-2.516,16.978-6.902l0.031-0.029l0.03-0.031
			c3.917-4.026,6.273-9.181,6.633-14.514l0.004-0.06l0-0.06c0.152-21.03,0.175-43.616,0.073-73.232l0.474-14.996
			c0.255-1.836,1.037-4.74,2.031-5.646c2.03-1.861,4.735-3.133,7.236-3.401l0.063-0.008l0.015-0.002h0.224l0.265-0.074
			c1.202-0.337,2.417-0.508,3.612-0.508c0.515,0,1.03,0.032,1.531,0.096l0.2,0.025l0.201-0.015c1.574-0.118,3.181-0.177,4.774-0.177
			V28.844 M250.303,28.844c-1.645,0-3.287,0.061-4.923,0.183c-0.592-0.075-1.187-0.112-1.783-0.112
			c-1.397,0-2.796,0.202-4.153,0.583c-0.084,0-0.167,0.011-0.24,0.021c-3.026,0.324-6.103,1.832-8.375,3.915
			c-2.011,1.832-2.675,6.954-2.675,6.954l-0.478,15.134c0.084,24.422,0.104,48.834-0.073,73.245
			c-0.345,5.109-2.628,9.714-6.072,13.254c-4.172,3.935-9.796,6.356-15.605,6.356c-0.881,0-1.766-0.056-2.651-0.17
			c-1.326,0.058-2.679,0.099-4.039,0.099c-7.436,0-15.11-1.217-20.048-7.448c-7.872-8.312-5.234-20.224-5.695-30.567
			c0.021-23.867-1.385-47.705-1.165-71.532c0-6.827-9.202-9.117-18.127-9.817l-1.309-0.021l-1.381-0.042
			c-0.492-0.012-0.987-0.018-1.479-0.018c-16.784-0.001-33.557,7.066-45.344,18.904c-7.255,7.056-12.729,15.87-15.294,25.94
			c-0.073,0.303-0.147,0.607-0.22,0.912c-0.032,0.105-0.053,0.199-0.073,0.303c-0.544,2.061-0.962,4.178-1.256,6.323h0.073
			c-0.555,3.831-0.817,7.611-0.89,11.431v68.671c-8.448,3.213-16.236,8.406-23.072,15.148
			c-17.942,16.98-29.614,44.511-29.614,75.602c0,16.99,3.486,32.922,9.589,46.645c11.442,25.794,31.967,45.232,56.089,46.388
			c1.508,0,2.799,0.004,3.89,0.004c0.546,0,1.042-0.001,1.49-0.004c0.495-0.004,1.321-0.005,2.202-0.005
			c1.762,0,3.744,0.005,3.744,0.005c2.293,0,4.068-1.762,4.068-3.908V159.982c0-0.472,0.167-0.921,0-1.339
			c0.073-23.512-0.3-46.918,0.014-70.492c0.345-6.323,2.524-12.782,6.103-18.225c0.032-0.053,0.073-0.105,0.105-0.157
			c4.907-6.791,11.891-12.166,19.832-12.166c0.089,0,0.178,0.001,0.267,0.002c0.679,0.01,2.695,0.333,2.695,0.333
			c0.089,17.798-0.384,41.697,0.194,73.73c1.366,19.286,18.845,35.419,38.064,35.419c0.956,0,1.915-0.04,2.877-0.121
			c1.859-0.046,3.723-0.063,5.585-0.063c5.069,0,10.146,0.125,15.216,0.125c5.78,0,11.547-0.162,17.282-0.857
			c7.443-1.392,13.996-5.192,19.125-10.436c8.552-8.28,13.42-20.508,12.3-32.557v-66.2c0.402-0.02,0.802-0.029,1.199-0.029
			c2.156,0,4.236,0.284,6.234,0.813c9.568,2.973,17.242,11.516,20.497,22.591c0,0,1.602,6.381,1.931,8.626
			c2.535,17.3,0.223,52.434,0,69.918c0,48.355-0.895,181.215-0.895,181.215c0,2.146,1.894,3.952,4.24,3.952c1.518,0,4.554,0,6.072,0
			c0.021,0,0.046,0.002,0.07,0.002c0.012,0,0.024-0.001,0.035-0.002c4.566,0,8.67,0,12.478,0
			c26.871-2.519,47.997-29.682,56.434-61.914c2.471-9.453,3.81-19.585,3.81-30.116c0-36.66-16.225-68.378-39.832-83.672
			c-0.115-0.083-0.231-0.157-0.345-0.231c-0.011,0-0.011-0.01-0.021-0.01c-4.041-2.733-8.312-4.972-12.761-6.668V87.785
			c-0.9-7.997-2.167-17.786-6.501-25.49C297.217,40.99,273.584,28.844,250.303,28.844L250.303,28.844z"/>
	</g>
</g>
<circle fill="none" stroke="#333333" stroke-width="3" stroke-miterlimit="10" cx="200.758" cy="201.705" r="194.242"/>
</svg>
