<?xml version="1.0" encoding="utf-8"?>
<!-- Generator: Adobe Illustrator 17.0.0, SVG Export Plug-In . SVG Version: 6.00 Build 0)  -->
<!DOCTYPE svg PUBLIC "-//W3C//DTD SVG 1.1//EN" "http://www.w3.org/Graphics/SVG/1.1/DTD/svg11.dtd">
<svg version="1.1" id="Layer_1" xmlns="http://www.w3.org/2000/svg" xmlns:xlink="http://www.w3.org/1999/xlink" x="0px" y="0px"
	 width="512px" height="512px" viewBox="0 0 512 512" enable-background="new 0 0 512 512" xml:space="preserve">
<path opacity="0.9" fill="#009C58" d="M256,45.05c-41.43,0-75.02,33.59-75.02,75.02v100.89l150.04-81.8v-19.09
	C331.02,78.64,297.43,45.05,256,45.05z M237.46,434.93v27.24h-93.4c-10.41,0-18.85,8.44-18.85,18.85v7.07
	c0,10.42,8.44,18.86,18.85,18.86h223.88c10.41,0,18.85-8.44,18.85-18.86v-7.07c0-10.41-8.44-18.85-18.85-18.85h-93.4v-27.24
	 M237.46,434.93L237.46,434.93z M274.54,434.93L274.54,434.93z M237.46,434.93c-45.87-6.62-83.92-37.39-100.83-79.01l-0.001-0.003
	L53.48,401.25L30.5,359.11l428.02-233.36l22.98,42.14l-150.479,82.043L331.02,297.6c0,41.43-33.59,75.02-75.02,75.02
	c-30.53,0-56.8-18.24-68.51-44.43l-0.001-0.003l-27.46,14.971l0.001,0.002c14.26,39.19,51.85,67.17,95.97,67.17
	c56.4,0,102.12-45.72,102.12-102.12l26.71-0.79c0,64.85-47.92,118.52-110.29,127.51"/>
</svg>
