<?xml version="1.0" encoding="utf-8"?>
<!-- Generator: Adobe Illustrator 17.0.0, SVG Export Plug-In . SVG Version: 6.00 Build 0)  -->
<!DOCTYPE svg PUBLIC "-//W3C//DTD SVG 1.1//EN" "http://www.w3.org/Graphics/SVG/1.1/DTD/svg11.dtd">
<svg version="1.1" id="Layer_1" xmlns="http://www.w3.org/2000/svg" xmlns:xlink="http://www.w3.org/1999/xlink" x="0px" y="0px"
	 width="512px" height="512px" viewBox="0 0 512 512" enable-background="new 0 0 512 512" xml:space="preserve">
<g>
	<g opacity="0.9">
		<g>
			<g>
				<path fill="#13A354" d="M166.455,144.693c-12.416,5.907-22.575,21.991-22.575,35.741l-0.001,171.13
					c0,13.75,10.159,29.833,22.575,35.741l155.877,74.163c12.416,5.907,22.575-0.509,22.575-14.259l0.002-362.416
					c0-13.75-10.159-20.167-22.575-14.259L166.455,144.693z"/>
			</g>
		</g>
	</g>
	<g opacity="0.9">
		<g>
			<g>
				<g>
					<path fill="#13A354" d="M61.311,179.93c0-13.75,11.25-25,25-25h6.826c13.75,0,25,11.25,25,25v172.139c0,13.75-11.25,25-25,25
						h-6.826c-13.75,0-25-11.25-25-25V179.93z"/>
				</g>
			</g>
		</g>
	</g>
	<path opacity="0.9" fill="#13A354" enable-background="new    " d="M429.828,413.163l-21.213-21.213
		c69.449-69.449,69.449-182.452,0.001-251.901l21.213-21.213C510.975,199.982,510.975,332.017,429.828,413.163z"/>
	<path opacity="0.9" fill="#13A354" enable-background="new    " d="M388.76,369.729l-21.213-21.213
		c45.498-45.498,45.498-119.53,0.001-165.03l21.213-21.213C445.955,219.469,445.955,312.534,388.76,369.729z"/>
</g>
</svg>
