<?xml version="1.0" encoding="utf-8"?>
<!-- Generator: Adobe Illustrator 17.0.0, SVG Export Plug-In . SVG Version: 6.00 Build 0)  -->
<!DOCTYPE svg PUBLIC "-//W3C//DTD SVG 1.1//EN" "http://www.w3.org/Graphics/SVG/1.1/DTD/svg11.dtd">
<svg version="1.1" id="Layer_1" xmlns="http://www.w3.org/2000/svg" xmlns:xlink="http://www.w3.org/1999/xlink" x="0px" y="0px"
	 width="512px" height="512px" viewBox="0 0 512 512" enable-background="new 0 0 512 512" xml:space="preserve">
<g>
	<polygon fill="#009C58" points="138.934,145.434 138.933,366.564 339.96,462.208 339.962,49.792 	"/>
</g>
<g>
	<rect x="56.366" y="144.93" fill="#009C58" width="56.826" height="222.139"/>
</g>
<path fill="none" stroke="#000000" stroke-width="5" stroke-miterlimit="10" d="M111.5,256"/>
<path fill="#27AE60" d="M434.127,433.128l-21.92-21.92c85.581-85.582,85.582-224.833,0.001-310.415l21.92-21.92
	c47.349,47.348,73.425,110.253,73.424,177.127C507.552,322.874,481.476,385.779,434.127,433.128z"/>
<path fill="#27AE60" d="M384.127,382.46l-21.92-21.92c57.643-57.644,57.644-151.436,0.001-209.079l21.92-21.92
	c33.804,33.804,52.42,78.715,52.42,126.459S417.931,348.656,384.127,382.46z"/>
</svg>
