<?xml version="1.0" encoding="utf-8"?>
<!-- Generator: Adobe Illustrator 17.0.0, SVG Export Plug-In . SVG Version: 6.00 Build 0)  -->
<!DOCTYPE svg PUBLIC "-//W3C//DTD SVG 1.1//EN" "http://www.w3.org/Graphics/SVG/1.1/DTD/svg11.dtd">
<svg version="1.1" id="Layer_1" xmlns="http://www.w3.org/2000/svg" xmlns:xlink="http://www.w3.org/1999/xlink" x="0px" y="0px"
	 width="512px" height="512px" viewBox="0 0 512 512" enable-background="new 0 0 512 512" xml:space="preserve">
<path fill="#27AE60" d="M13.973,302.132v32.165c0,5.793,1.931,11.13,5.189,15.4c4.632,6.099,11.975,10.035,20.237,10.035h76.306
	l192.574,101.731c0,0,25.435,3.175,25.435-25.435V141.879V88.031V75.972c0-28.61-25.435-25.435-25.435-25.435L115.704,152.268
	H39.398c-14.054,0-25.426,11.372-25.426,25.435v70.587v53.841H13.973z"/>
<rect x="382.333" y="237" fill="#27AE60" width="116.667" height="38"/>
<rect x="362.333" y="102.333" transform="matrix(0.9224 -0.3863 0.3863 0.9224 -14.2158 171.9239)" fill="#27AE60" width="116.667" height="38"/>
<rect x="362.333" y="369.667" transform="matrix(0.9254 0.3791 -0.3791 0.9254 178.7211 -130.4523)" fill="#27AE60" width="116.667" height="38"/>
</svg>
