<?xml version="1.0" encoding="utf-8"?>
<!-- Generator: Adobe Illustrator 17.0.0, SVG Export Plug-In . SVG Version: 6.00 Build 0)  -->
<!DOCTYPE svg PUBLIC "-//W3C//DTD SVG 1.1//EN" "http://www.w3.org/Graphics/SVG/1.1/DTD/svg11.dtd">
<svg version="1.1" id="Layer_1" xmlns="http://www.w3.org/2000/svg" xmlns:xlink="http://www.w3.org/1999/xlink" x="0px" y="0px"
	 width="512px" height="512px" viewBox="0 0 512 512" enable-background="new 0 0 512 512" xml:space="preserve">
<path fill="#27AE60" d="M33.973,302.132v32.165c0,5.793,1.931,11.13,5.189,15.4c4.632,6.099,11.975,10.035,20.237,10.035h66.306
	l192.574,101.731c0,0,25.435,3.175,25.435-25.435V141.879V88.031V75.972c0-28.61-25.435-25.435-25.435-25.435L125.704,152.268
	H59.398c-14.054,0-25.426,11.372-25.426,25.435v70.587L33.973,302.132L33.973,302.132L33.973,302.132z"/>
<polygon fill="#27AE60" points="392.333,237 502,236.5 502,274.5 392.333,275 "/>
<rect x="372.327" y="102.337" transform="matrix(0.9224 -0.3863 0.3863 0.9224 -13.4427 175.7811)" fill="#27AE60" width="116.679" height="38.004"/>
<rect x="372.309" y="369.669" transform="matrix(0.9254 0.3791 -0.3791 0.9254 179.4828 -134.244)" fill="#27AE60" width="116.687" height="38.008"/>
</svg>
