<?xml version="1.0" encoding="utf-8"?>
<!-- Generator: Adobe Illustrator 17.0.0, SVG Export Plug-In . SVG Version: 6.00 Build 0)  -->
<!DOCTYPE svg PUBLIC "-//W3C//DTD SVG 1.1//EN" "http://www.w3.org/Graphics/SVG/1.1/DTD/svg11.dtd">
<svg version="1.1" id="Layer_1" xmlns="http://www.w3.org/2000/svg" xmlns:xlink="http://www.w3.org/1999/xlink" x="0px" y="0px"
	 width="512px" height="512px" viewBox="0 0 512 512" enable-background="new 0 0 512 512" xml:space="preserve">
<g opacity="0.9">
	<g>
		<g>
			<path fill="#13A354" d="M169.455,134.692c-12.416,5.907-22.575,21.991-22.575,35.741l-0.001,171.13
				c0,13.75,10.159,29.833,22.575,35.741l155.877,74.163c12.416,5.907,22.575-0.509,22.575-14.259l0.002-362.416
				c0-13.75-10.159-20.167-22.575-14.259L169.455,134.692z"/>
		</g>
	</g>
</g>
<g opacity="0.9">
	<g>
		<g>
			<g>
				<path fill="#13A354" d="M64.311,169.93c0-13.75,11.25-25,25-25h6.826c13.75,0,25,11.25,25,25V342.07c0,13.75-11.25,25-25,25
					h-6.826c-13.75,0-25-11.25-25-25C64.311,342.07,64.311,169.93,64.311,169.93z"/>
			</g>
		</g>
	</g>
</g>
<path opacity="0.9" fill="#13A354" enable-background="new    " d="M426.854,408.549l-21.989-21.989
	c71.991-71.991,71.99-189.129,0.001-261.12l21.989-21.989C510.971,187.567,510.971,324.434,426.854,408.549z"/>
<path opacity="0.9" fill="#13A354" enable-background="new    " d="M384.283,363.524l-21.989-21.989
	c47.163-47.163,47.163-123.904,0.001-171.07l21.989-21.989C443.571,207.765,443.571,304.236,384.283,363.524z"/>
</svg>
