<?xml version="1.0" encoding="utf-8"?>
<!-- Generator: Adobe Illustrator 17.0.0, SVG Export Plug-In . SVG Version: 6.00 Build 0)  -->
<!DOCTYPE svg PUBLIC "-//W3C//DTD SVG 1.1//EN" "http://www.w3.org/Graphics/SVG/1.1/DTD/svg11.dtd">
<svg version="1.1" id="Layer_1" xmlns="http://www.w3.org/2000/svg" xmlns:xlink="http://www.w3.org/1999/xlink" x="0px" y="0px"
	 width="512px" height="512px" viewBox="0 0 512 512" enable-background="new 0 0 512 512" xml:space="preserve">
<path fill="#9B59B6" d="M256,55.652c63.393,0,114.783,51.39,114.783,114.783S319.393,285.218,256,285.218
	s-114.783-51.39-114.783-114.783S192.607,55.652,256,55.652z M256,236.025c102.91,0,186.335,60.066,186.335,134.161
	S358.91,504.347,256,504.347S69.665,444.281,69.665,370.186S153.09,236.025,256,236.025z"/>
<path fill="#9B59B6" d="M437.046,248.132l-24.594-17.179c36.846-52.75,23.907-125.642-28.842-162.49l17.179-24.594
	C467.099,90.188,483.364,181.821,437.046,248.132z"/>
<path fill="#9B59B6" d="M111.145,43.857l17.196,24.582C75.615,105.32,62.726,178.221,99.606,230.948l-24.582,17.195
	C28.661,181.863,44.865,90.22,111.145,43.857z"/>
</svg>
