<?xml version="1.0" encoding="utf-8"?>
<!-- Generator: Adobe Illustrator 17.0.0, SVG Export Plug-In . SVG Version: 6.00 Build 0)  -->
<!DOCTYPE svg PUBLIC "-//W3C//DTD SVG 1.1//EN" "http://www.w3.org/Graphics/SVG/1.1/DTD/svg11.dtd">
<svg version="1.1" id="Layer_1" xmlns="http://www.w3.org/2000/svg" xmlns:xlink="http://www.w3.org/1999/xlink" x="0px" y="0px"
	 width="512px" height="512px" viewBox="0 0 512 512" enable-background="new 0 0 512 512" xml:space="preserve">
<path opacity="0.9" fill="#13A354" enable-background="new    " d="M256,55.652c63.393,0,114.783,51.39,114.783,114.783
	S319.393,285.218,256,285.218s-114.783-51.39-114.783-114.783S192.607,55.652,256,55.652z M256,236.025
	c102.91,0,186.335,60.066,186.335,134.161S358.91,504.347,256,504.347S69.665,444.281,69.665,370.186S153.09,236.025,256,236.025z"
	/>
<path opacity="0.9" fill="#13A354" enable-background="new    " d="M438.957,248.129l-33.312-22.57
	c39.665-56.785,25.166-137.337-26.215-173.23L402,20.016C487.328,79.619,498.937,162.259,438.957,248.129z"/>
<path opacity="0.9" fill="#13A354" enable-background="new    " d="M111.457,20l22.593,32.297
	c-51.367,35.93-68.125,116.506-28.431,173.255l-32.297,22.591C12.409,161.062,24.376,80.913,111.457,20z"/>
</svg>
