<?xml version="1.0" encoding="utf-8"?>
<!-- Generator: Adobe Illustrator 17.0.0, SVG Export Plug-In . SVG Version: 6.00 Build 0)  -->
<!DOCTYPE svg PUBLIC "-//W3C//DTD SVG 1.1//EN" "http://www.w3.org/Graphics/SVG/1.1/DTD/svg11.dtd">
<svg version="1.1" id="Layer_1" xmlns="http://www.w3.org/2000/svg" xmlns:xlink="http://www.w3.org/1999/xlink" x="0px" y="0px"
	 width="500px" height="500px" viewBox="0 0 500 500" enable-background="new 0 0 500 500" xml:space="preserve">
<circle opacity="0.75" fill="#00A0BA" cx="250" cy="269.461" r="210.895"/>
<path fill="#00FF67" d="M115.55,310.517c-14.791-8.213-27.199-19.336-43.253-48.764s9.301-98.627,19.616-118.307
	s133.268-93.541,159.84-40.417c11.405,22.801-33.077,6.533-48.073,34.57c-12.423,23.226,12.423,17.528,28.628,41.834
	c26.227,39.341,2.584,44.631-30.769,55.218s-53.197,33.859-64.54,56.545c-10.385,20.77,121.615,97.21,146.818,127.926
	s-56.651,49.388-99.582,46.889c-42.93-2.499-43.405-99.766-47.466-130.803C136.768,335.206,130.34,318.729,115.55,310.517z
	 M333.809,87.371c-5.357,18.647,2.116,99.201,26.584,105.442c24.468,6.241,28.698-35.26,45.342-24.803s30.154,21.258,15.531,59.517
	s-67.286,188.344-28.125,164.017s46.491-56.298,49.47-102.038c2.978-45.74,15.301-61.825-8.933-106.1s-45.644-63.856-75.958-85.788
	C327.406,75.685,333.809,87.371,333.809,87.371z"/>
</svg>
