<?xml version="1.0" encoding="utf-8"?>
<!-- Generator: Adobe Illustrator 17.0.0, SVG Export Plug-In . SVG Version: 6.00 Build 0)  -->
<!DOCTYPE svg PUBLIC "-//W3C//DTD SVG 1.1//EN" "http://www.w3.org/Graphics/SVG/1.1/DTD/svg11.dtd">
<svg version="1.1"
	 id="svg16168" xmlns:dc="http://purl.org/dc/elements/1.1/" xmlns:rdf="http://www.w3.org/1999/02/22-rdf-syntax-ns#" xmlns:svg="http://www.w3.org/2000/svg" xmlns:cc="http://creativecommons.org/ns#" xmlns:inkscape="http://www.inkscape.org/namespaces/inkscape" xmlns:sodipodi="http://sodipodi.sourceforge.net/DTD/sodipodi-0.dtd" inkscape:output_extension="org.inkscape.output.svg.inkscape" sodipodi:docname="image-x-generic.svg" sodipodi:version="0.32" inkscape:version="0.46" sodipodi:docbase="/home/jimmac/src/cvs/tango-icon-theme/scalable/mimetypes"
	 xmlns="http://www.w3.org/2000/svg" xmlns:xlink="http://www.w3.org/1999/xlink" x="0px" y="0px" width="48px" height="48px"
	 viewBox="0 0 48 48" enable-background="new 0 0 48 48" xml:space="preserve">
<path opacity="0.75" fill="#FF3E3E" d="M44.402,10.623H3.598c-1.48,0-2.673,1.193-2.673,2.673v22.123
	c0,1.48,1.193,2.673,2.673,2.673h40.804c1.48,0,2.673-1.193,2.673-2.673V13.296C47.075,11.816,45.882,10.623,44.402,10.623z
	 M24,33.434c-5.015,0-9.076-4.062-9.076-9.076s4.062-9.076,9.076-9.076s9.076,4.062,9.076,9.076S29.015,33.434,24,33.434z"/>
<path opacity="0.75" fill="#FF3E3E" d="M15.48,10.623v-3.27c0-1.262,1.021-2.295,2.295-2.295h12.45c1.262,0,2.295,1.033,2.295,2.295
	v3.27H15.48z"/>
</svg>
