<?xml version="1.0" encoding="utf-8"?>
<!-- Generator: Adobe Illustrator 17.0.0, SVG Export Plug-In . SVG Version: 6.00 Build 0)  -->
<!DOCTYPE svg PUBLIC "-//W3C//DTD SVG 1.1//EN" "http://www.w3.org/Graphics/SVG/1.1/DTD/svg11.dtd">
<svg version="1.1"
	 id="svg16168" xmlns:rdf="http://www.w3.org/1999/02/22-rdf-syntax-ns#" xmlns:dc="http://purl.org/dc/elements/1.1/" xmlns:sodipodi="http://sodipodi.sourceforge.net/DTD/sodipodi-0.dtd" xmlns:inkscape="http://www.inkscape.org/namespaces/inkscape" xmlns:cc="http://creativecommons.org/ns#" xmlns:svg="http://www.w3.org/2000/svg" sodipodi:docbase="/home/jimmac/src/cvs/tango-icon-theme/scalable/mimetypes" inkscape:version="0.46" sodipodi:version="0.32" sodipodi:docname="image-x-generic.svg" inkscape:output_extension="org.inkscape.output.svg.inkscape"
	 xmlns="http://www.w3.org/2000/svg" xmlns:xlink="http://www.w3.org/1999/xlink" x="0px" y="0px" width="48px" height="48px"
	 viewBox="0 0 48 48" enable-background="new 0 0 48 48" xml:space="preserve">
<path opacity="0.75" fill="#FF3E3E" enable-background="new    " d="M44.4,10.357H32.52v-3.27c0-1.26-1.03-2.29-2.3-2.29H17.77
	c-1.27,0-2.29,1.03-2.29,2.29v3.27H3.6c-1.48,0-2.68,1.2-2.68,2.68v22.12c0,1.48,1.2,2.67,2.68,2.67h40.8
	c1.48,0,2.68-1.19,2.68-2.67v-22.12C47.08,11.557,45.88,10.357,44.4,10.357z M24,34.934c-6.037,0-10.94-4.892-10.94-10.928
	c0-6.049,4.904-10.94,10.94-10.94s10.94,4.892,10.94,10.94C34.94,30.043,30.037,34.934,24,34.934z M31,24c0,3.866-3.134,7-7,7
	s-7-3.134-7-7s3.134-7,7-7S31,20.134,31,24z"/>
</svg>
