<?xml version="1.0" encoding="utf-8"?>
<!-- Generator: Adobe Illustrator 17.0.0, SVG Export Plug-In . SVG Version: 6.00 Build 0)  -->
<!DOCTYPE svg PUBLIC "-//W3C//DTD SVG 1.1//EN" "http://www.w3.org/Graphics/SVG/1.1/DTD/svg11.dtd">
<svg version="1.1"
	 id="svg249" xmlns:rdf="http://www.w3.org/1999/02/22-rdf-syntax-ns#" xmlns:svg="http://www.w3.org/2000/svg" xmlns:cc="http://creativecommons.org/ns#" xmlns:sodipodi="http://sodipodi.sourceforge.net/DTD/sodipodi-0.dtd" xmlns:inkscape="http://www.inkscape.org/namespaces/inkscape" xmlns:dc="http://purl.org/dc/elements/1.1/" inkscape:output_extension="org.inkscape.output.svg.inkscape" sodipodi:docname="text-html.svg" inkscape:version="0.46" sodipodi:docbase="/home/jimmac/src/cvs/tango-icon-theme/scalable/mimetypes" sodipodi:version="0.32"
	 xmlns="http://www.w3.org/2000/svg" xmlns:xlink="http://www.w3.org/1999/xlink" x="0px" y="0px" width="48px" height="48px"
	 viewBox="0 0 48 48" enable-background="new 0 0 48 48" xml:space="preserve">
<defs>
	
	
		<inkscape:perspective  sodipodi:type="inkscape:persp3d" inkscape:vp_z="48 : 24 : 1" inkscape:vp_x="0 : 24 : 1" inkscape:vp_y="0 : 1000 : 0" id="perspective228" inkscape:persp3d-origin="24 : 16 : 1">
		</inkscape:perspective>
</defs>
<sodipodi:namedview  bordercolor="#666666" id="base" inkscape:cx="35.072186" inkscape:zoom="1" inkscape:cy="21.843109" pagecolor="#ffffff" showgrid="false" borderopacity="1.0" inkscape:grid-bbox="true" inkscape:showpageshadow="false" inkscape:window-y="122" inkscape:window-x="188" inkscape:window-height="688" inkscape:window-width="872" inkscape:current-layer="layer6" inkscape:document-units="px" inkscape:pageshadow="2" inkscape:pageopacity="0.0">
	</sodipodi:namedview>
<g>
	<path fill="#00B3DD" d="M34.348,35.041h-8.519v-4.904h8.519c3.384,0,6.137-2.753,6.137-6.137s-2.753-6.137-6.137-6.137h-8.519
		v-4.904h8.519c6.088,0,11.041,4.953,11.041,11.041S40.436,35.041,34.348,35.041z"/>
	<path fill="#00B3DD" d="M22.31,35.041h-8.658C7.564,35.041,2.611,30.088,2.611,24s4.953-11.041,11.041-11.041h8.658v4.904h-8.658
		c-3.384,0-6.137,2.753-6.137,6.137s2.753,6.137,6.137,6.137h8.658C22.31,30.137,22.31,35.041,22.31,35.041z"/>
	<g>
		<g>
			<g>
				<path fill="#00B3DD" d="M13.344,22.982c0-1.1,0.9-2,2-2h17.263c1.1,0,2,0.9,2,2v2.036c0,1.1-0.9,2-2,2H15.344c-1.1,0-2-0.9-2-2
					V22.982z"/>
			</g>
		</g>
	</g>
</g>
</svg>
