<?xml version="1.0" encoding="utf-8"?>
<!-- Generator: Adobe Illustrator 17.0.0, SVG Export Plug-In . SVG Version: 6.00 Build 0)  -->
<!DOCTYPE svg PUBLIC "-//W3C//DTD SVG 1.1//EN" "http://www.w3.org/Graphics/SVG/1.1/DTD/svg11.dtd">
<svg version="1.1" id="Layer_1" xmlns="http://www.w3.org/2000/svg" xmlns:xlink="http://www.w3.org/1999/xlink" x="0px" y="0px"
	 width="512px" height="512px" viewBox="0 0 512 512" enable-background="new 0 0 512 512" xml:space="preserve">
<polygon fill="#00B4DF" points="512,177.65 478.55,194.4 457.5,204.95 61.07,403.65 31.03,418.71 24.58,421.94 0.73,374.36 
	0.52,373.95 11.09,368.65 30.25,359.04 54.5,346.89 457.5,144.9 478.55,134.35 484.79,131.23 487.95,129.65 488.28,130.32 "/>
<path fill="#00B4DF" d="M438.5,94.89l-384,192.46V121.19c0-15.31,12.38-27.69,27.69-27.69h347.62
	C432.85,93.5,435.77,93.99,438.5,94.89z"/>
<path fill="#00B4DF" d="M457.5,144.9v240.85c0,15.3-12.38,27.69-27.69,27.69H252.16l-124.6,83.06v-83.06H82.19
	c-8.48,0-16.06-3.8-21.12-9.79c-4.1-4.83-6.57-11.07-6.57-17.9v-38.86L457.5,144.9z"/>
<polygon fill="#00B4DF" points="485,131.65 457.5,145.42 451.55,148.4 54.5,347.41 4.03,372.71 0.73,374.36 0.52,373.95 
	11.09,368.65 30.25,359.04 54.5,346.89 457.5,144.9 478.55,134.35 484.79,131.23 "/>
</svg>
