<?xml version="1.0" encoding="utf-8"?>
<!-- Generator: Adobe Illustrator 17.0.0, SVG Export Plug-In . SVG Version: 6.00 Build 0)  -->
<!DOCTYPE svg PUBLIC "-//W3C//DTD SVG 1.1//EN" "http://www.w3.org/Graphics/SVG/1.1/DTD/svg11.dtd">
<svg version="1.1" id="Layer_1" xmlns="http://www.w3.org/2000/svg" xmlns:xlink="http://www.w3.org/1999/xlink" x="0px" y="0px"
	 width="512px" height="512px" viewBox="0 0 512 512" enable-background="new 0 0 512 512" xml:space="preserve">
<path fill="#00B4DF" d="M457.409,84.88L43.017,292.576V106.604C43.017,91.894,54.912,80,69.621,80h372.424
	C447.772,79.999,453.076,81.806,457.409,84.88z M468.65,135.466v263.758c0,14.7-11.895,26.604-26.604,26.604h-199.51
	l-119.715,79.804v-79.804H69.622c-12.567,0-23.078-8.686-25.865-20.388c-0.49-1.989-0.74-4.074-0.74-6.216v-50.432L468.65,135.466z
	 M511.738,170.646l-33.446,16.758L30.773,411.706l-6.457,3.238L0.262,366.946l10.565-5.292l19.166-9.614l448.3-224.686l9.391-4.706
	l0.334,0.668L511.738,170.646z"/>
</svg>
