<?xml version="1.0" encoding="utf-8"?>
<!-- Generator: Adobe Illustrator 17.0.0, SVG Export Plug-In . SVG Version: 6.00 Build 0)  -->
<!DOCTYPE svg PUBLIC "-//W3C//DTD SVG 1.1//EN" "http://www.w3.org/Graphics/SVG/1.1/DTD/svg11.dtd">
<svg version="1.1" id="Layer_1" xmlns="http://www.w3.org/2000/svg" xmlns:xlink="http://www.w3.org/1999/xlink" x="0px" y="0px"
	 width="141.732px" height="141.732px" viewBox="0 0 141.732 141.732" enable-background="new 0 0 141.732 141.732"
	 xml:space="preserve">
<path opacity="0.75" fill="#FF3E3E" enable-background="new    " d="M134.164,62.663c0-18.973-15.43-34.353-34.465-34.353
	c-12.539,0-23.511,6.676-29.541,16.655c-6.03-9.979-17.003-16.655-29.543-16.655C21.579,28.311,6.15,43.69,6.15,62.663
	c0,9.872,4.186,18.767,10.877,25.033h-0.009l49.343,47.062c0.905,1.084,2.263,1.775,3.784,1.775c1.41,0,2.679-0.596,3.576-1.547
	l49.582-47.289h-0.015C129.981,81.431,134.164,72.537,134.164,62.663"/>
</svg>
