<?xml version="1.0" encoding="utf-8"?>
<!-- Generator: Adobe Illustrator 17.0.0, SVG Export Plug-In . SVG Version: 6.00 Build 0)  -->
<!DOCTYPE svg PUBLIC "-//W3C//DTD SVG 1.1//EN" "http://www.w3.org/Graphics/SVG/1.1/DTD/svg11.dtd">
<svg version="1.1" id="Layer_1" xmlns="http://www.w3.org/2000/svg" xmlns:xlink="http://www.w3.org/1999/xlink" x="0px" y="0px"
	 width="141.732px" height="141.732px" viewBox="0 0 141.732 141.732" enable-background="new 0 0 141.732 141.732"
	 xml:space="preserve">
<path fill="#E74C3C" d="M140.314,49.209c0-20.796-16.912-37.654-37.777-37.654c-13.744,0-25.77,7.317-32.379,18.255
	c-6.609-10.938-18.637-18.255-32.381-18.255C16.912,11.556,0,28.413,0,49.209c0,10.821,4.588,20.57,11.922,27.438h-0.01
	l54.084,51.584c0.992,1.188,2.48,1.945,4.148,1.945c1.545,0,2.936-0.653,3.92-1.696l54.346-51.833h-0.016
	C135.729,69.78,140.314,60.031,140.314,49.209"/>
</svg>
