<?xml version="1.0" encoding="utf-8"?>
<!-- Generator: Adobe Illustrator 17.0.0, SVG Export Plug-In . SVG Version: 6.00 Build 0)  -->
<!DOCTYPE svg PUBLIC "-//W3C//DTD SVG 1.1//EN" "http://www.w3.org/Graphics/SVG/1.1/DTD/svg11.dtd">
<svg version="1.1" id="Layer_1" xmlns="http://www.w3.org/2000/svg" xmlns:xlink="http://www.w3.org/1999/xlink" x="0px" y="0px"
	 width="141.732px" height="141.732px" viewBox="0 0 141.732 141.732" enable-background="new 0 0 141.732 141.732"
	 xml:space="preserve">
<g>
	<path fill="#009C58" d="M98.741,94.022c-3.76,10.35-13.11,18.01-24.39,19.36c11.31-1.32,20.67-8.97,24.46-19.32L98.741,94.022z
		 M65.391,120.752h0.07c-0.83-0.12-1.66-0.27-2.47-0.44C63.781,120.492,64.581,120.632,65.391,120.752z M36.101,97.742l6.75-3.68
		c-1.16-3.19-1.8-6.63-1.8-10.22l-7.78-0.23c0,17.219,11.597,31.717,27.405,36.125C49.492,116.583,40.417,108.377,36.101,97.742z
		 M60.771,119.764c-0.032-0.009-0.063-0.018-0.095-0.027C60.708,119.746,60.74,119.755,60.771,119.764z M62.991,120.312
		c-0.749-0.16-1.488-0.344-2.22-0.548C61.504,119.966,62.241,120.154,62.991,120.312z M70.961,7.202c-0.38,0-0.75,0.01-1.12,0.03
		c-11.5,0.63-20.63,10.16-20.63,21.82v51.7c0,12.01,9.68,21.75,21.65,21.85h0.1c12.02-0.05,21.75-9.81,21.75-21.85v-51.7
		C92.711,17.012,82.981,7.252,70.961,7.202z M80.891,119.763c0.031-0.009,0.062-0.017,0.094-0.026
		C80.954,119.746,80.923,119.755,80.891,119.763z M108.381,83.612l-7.77,0.23c0,3.59-0.64,7.03-1.8,10.22l6.75,3.68
		c-4.325,10.635-13.393,18.841-24.576,21.995C96.793,115.33,108.381,100.831,108.381,83.612z M80.891,119.763
		c-0.732,0.204-1.472,0.388-2.22,0.549C79.421,120.154,80.159,119.966,80.891,119.763z M76.261,120.752c0.4-0.06,0.79-0.12,1.18-0.2
		c-0.42,0.07-0.83,0.14-1.25,0.2H76.261z M42.911,94.022l-0.06,0.04c3.79,10.35,13.15,18,24.45,19.32
		C56.021,112.032,46.681,104.372,42.911,94.022z M70.961,7.202c-0.38,0-0.75,0.01-1.12,0.03c-11.5,0.63-20.63,10.16-20.63,21.82
		v51.7c0,12.01,9.68,21.75,21.65,21.85h0.1c12.02-0.05,21.75-9.81,21.75-21.85v-51.7C92.711,17.012,82.981,7.252,70.961,7.202z
		 M103.471,128.682h-27.21v-7.93h-10.8v7.93h-27.2c-3.03,0-5.49,2.46-5.49,5.49v2.06c0,3.04,2.46,5.5,5.49,5.5h65.21
		c3.03,0,5.49-2.46,5.49-5.5v-2.06C108.961,131.142,106.501,128.682,103.471,128.682z"/>
	<path fill="#27AF60" d="M105.596,97.742c-4.62,11.36-14.65,19.95-26.89,22.57c-0.41,0.09-0.82,0.17-1.23,0.24
		c-0.42,0.07-0.83,0.14-1.25,0.2h-10.73c-0.83-0.12-1.66-0.27-2.47-0.44c-12.24-2.62-22.28-11.21-26.89-22.57l6.75-3.68
		c3.79,10.35,13.15,18,24.45,19.32c0.3,0.04,0.61,0.07,0.92,0.09c0.26,0.03,0.53,0.05,0.79,0.06c0.12,0.01,0.24,0.02,0.36,0.02
		c0.43,0.02,0.86,0.04,1.3,0.04h0.31c0.44,0,0.87-0.02,1.3-0.04c0.13,0,0.26-0.01,0.39-0.02c0.25-0.01,0.5-0.03,0.74-0.05
		c0.32-0.02,0.63-0.06,0.94-0.1c11.31-1.32,20.67-8.97,24.46-19.32L105.596,97.742z"/>
</g>
</svg>
