<?xml version="1.0" encoding="utf-8"?>
<!-- Generator: Adobe Illustrator 17.0.0, SVG Export Plug-In . SVG Version: 6.00 Build 0)  -->
<!DOCTYPE svg PUBLIC "-//W3C//DTD SVG 1.1//EN" "http://www.w3.org/Graphics/SVG/1.1/DTD/svg11.dtd">
<svg version="1.1" id="Layer_1" xmlns="http://www.w3.org/2000/svg" xmlns:xlink="http://www.w3.org/1999/xlink" x="0px" y="0px"
	 width="141.732px" height="141.732px" viewBox="0 0 141.732 141.732" enable-background="new 0 0 141.732 141.732"
	 xml:space="preserve">
<path fill="#E74C3C" d="M70.866,7.202c-12.067,0-21.85,9.783-21.85,21.85v29.385l43.7-23.825v-5.56
	C92.716,16.985,82.933,7.202,70.866,7.202z M65.466,120.756v7.934H38.263c-3.032,0-5.49,2.458-5.49,5.49v2.059
	c0,3.035,2.458,5.493,5.49,5.493h65.206c3.032,0,5.49-2.458,5.49-5.493v-2.059c0-3.032-2.458-5.49-5.49-5.49H76.266v-7.934
	 M65.466,120.756L65.466,120.756z M76.266,120.756L76.266,120.756z M65.466,120.756c-13.36-1.928-24.442-10.89-29.367-23.012
	l0-0.001l-24.217,13.203L5.188,98.673l124.662-67.967l6.693,12.273L92.716,66.875l0,13.883c0,12.067-9.783,21.85-21.85,21.85
	c-8.892,0-16.543-5.312-19.954-12.94l0-0.001l-7.998,4.36l0,0.001c4.153,11.414,15.101,19.563,27.952,19.563
	c16.427,0,29.743-13.316,29.743-29.743l7.779-0.23c0,18.888-13.957,34.519-32.122,37.138"/>
</svg>
