<?xml version="1.0" encoding="utf-8"?>
<!-- Generator: Adobe Illustrator 17.0.0, SVG Export Plug-In . SVG Version: 6.00 Build 0)  -->
<!DOCTYPE svg PUBLIC "-//W3C//DTD SVG 1.1//EN" "http://www.w3.org/Graphics/SVG/1.1/DTD/svg11.dtd">
<svg version="1.1" id="Layer_1" xmlns="http://www.w3.org/2000/svg" xmlns:xlink="http://www.w3.org/1999/xlink" x="0px" y="0px"
	 width="500px" height="500px" viewBox="0 0 500 500" enable-background="new 0 0 500 500" xml:space="preserve">
<path opacity="0.75" fill="#FF3E3E" enable-background="new    " d="M445.5,250c0,107.972-87.528,195.5-195.5,195.5
	S54.5,357.972,54.5,250S142.028,54.5,250,54.5S445.5,142.028,445.5,250z M250,79.5c-93.612,0-169.5,75.888-169.5,169.5
	S156.388,418.5,250,418.5S419.5,342.612,419.5,249S343.612,79.5,250,79.5z M250,119c-71.797,0-130,58.203-130,130
	s58.203,130,130,130s130-58.203,130-130S321.797,119,250,119z"/>
</svg>
