<?xml version="1.0" encoding="utf-8"?>
<!-- Generator: Adobe Illustrator 17.0.0, SVG Export Plug-In . SVG Version: 6.00 Build 0)  -->
<!DOCTYPE svg PUBLIC "-//W3C//DTD SVG 1.1//EN" "http://www.w3.org/Graphics/SVG/1.1/DTD/svg11.dtd">
<svg version="1.1" id="Layer_1" xmlns="http://www.w3.org/2000/svg" xmlns:xlink="http://www.w3.org/1999/xlink" x="0px" y="0px"
	 width="500px" height="500px" viewBox="0 0 500 500" enable-background="new 0 0 500 500" xml:space="preserve">
<path fill="#C0392B" d="M445.5,270c0,107.972-87.528,195.5-195.5,195.5S54.5,377.972,54.5,270S142.028,74.5,250,74.5
	S445.5,162.028,445.5,270z M250,99.5c-93.612,0-169.5,75.888-169.5,169.5S156.388,438.5,250,438.5S419.5,362.612,419.5,269
	S343.612,99.5,250,99.5z M250,139c-71.797,0-130,58.203-130,130s58.203,130,130,130s130-58.203,130-130S321.797,139,250,139z"/>
</svg>
