<?xml version="1.0" encoding="utf-8"?>
<!-- Generator: Adobe Illustrator 17.0.0, SVG Export Plug-In . SVG Version: 6.00 Build 0)  -->
<!DOCTYPE svg PUBLIC "-//W3C//DTD SVG 1.1//EN" "http://www.w3.org/Graphics/SVG/1.1/DTD/svg11.dtd">
<svg version="1.1" id="Layer_1" xmlns="http://www.w3.org/2000/svg" xmlns:xlink="http://www.w3.org/1999/xlink" x="0px" y="0px"
	 width="500px" height="500px" viewBox="0 0 500 500" enable-background="new 0 0 500 500" xml:space="preserve">
<path opacity="0.75" fill="#FF3E3E" enable-background="new    " d="M353.035,249.07c0,56.907-46.128,103.035-103.035,103.035
	S146.965,305.977,146.965,249.07S193.093,146.035,250,146.035S353.035,192.163,353.035,249.07z"/>
<path opacity="0.75" fill="#FF3E3E" enable-background="new    " d="M250,68.17C149.58,68.17,68.17,149.58,68.17,250
	S149.58,431.83,250,431.83S431.83,350.42,431.83,250S350.42,68.17,250,68.17z M250,391.72c-78.786,0-142.65-63.864-142.65-142.65
	S171.214,106.42,250,106.42s142.65,63.865,142.65,142.65S328.786,391.72,250,391.72z"/>
</svg>
