<?xml version="1.0" encoding="utf-8"?>
<!-- Generator: Adobe Illustrator 17.0.0, SVG Export Plug-In . SVG Version: 6.00 Build 0)  -->
<!DOCTYPE svg PUBLIC "-//W3C//DTD SVG 1.1//EN" "http://www.w3.org/Graphics/SVG/1.1/DTD/svg11.dtd">
<svg version="1.1" id="Layer_1" xmlns="http://www.w3.org/2000/svg" xmlns:xlink="http://www.w3.org/1999/xlink" x="0px" y="0px"
	 width="500px" height="500px" viewBox="0 0 500 500" enable-background="new 0 0 500 500" xml:space="preserve">
<path opacity="0.75" fill="#FF3E3E" enable-background="new    " d="M353.04,249.07c0,56.91-46.13,103.04-103.04,103.04
	s-103.04-46.13-103.04-103.04c0-56.91,46.13-103.03,103.04-103.03S353.04,192.16,353.04,249.07z"/>
<path opacity="0.75" fill="#FF3E3E" enable-background="new    " d="M250,80.17c-93.793,0-169.83,76.037-169.83,169.83
	S156.207,419.83,250,419.83S419.83,343.793,419.83,250S343.793,80.17,250,80.17z M250,391.72c-78.79,0-142.65-63.86-142.65-142.65
	S171.21,106.42,250,106.42s142.65,63.87,142.65,142.65S328.79,391.72,250,391.72z"/>
</svg>
