<?xml version="1.0" encoding="utf-8"?>
<!-- Generator: Adobe Illustrator 17.0.0, SVG Export Plug-In . SVG Version: 6.00 Build 0)  -->
<!DOCTYPE svg PUBLIC "-//W3C//DTD SVG 1.1//EN" "http://www.w3.org/Graphics/SVG/1.1/DTD/svg11.dtd">
<svg version="1.1" id="Layer_1" xmlns="http://www.w3.org/2000/svg" xmlns:xlink="http://www.w3.org/1999/xlink" x="0px" y="0px"
	 width="500px" height="500px" viewBox="0 0 500 500" enable-background="new 0 0 500 500" xml:space="preserve">
<path opacity="0.75" fill="#FF3E3E" enable-background="new    " d="M431.833,250c0,100.424-81.409,181.833-181.833,181.833
	S68.167,350.424,68.167,250S149.576,68.167,250,68.167S431.833,149.576,431.833,250z M250,91.419
	c-87.068,0-157.651,70.583-157.651,157.651S162.932,406.721,250,406.721s157.651-70.583,157.651-157.651S337.068,91.419,250,91.419z
	 M250,128.158c-66.778,0-120.912,54.134-120.912,120.912S183.222,369.982,250,369.982s120.912-54.134,120.912-120.912
	S316.778,128.158,250,128.158z"/>
</svg>
