<?xml version="1.0" encoding="utf-8"?>
<!-- Generator: Adobe Illustrator 17.0.0, SVG Export Plug-In . SVG Version: 6.00 Build 0)  -->
<!DOCTYPE svg PUBLIC "-//W3C//DTD SVG 1.1//EN" "http://www.w3.org/Graphics/SVG/1.1/DTD/svg11.dtd">
<svg version="1.1" id="Layer_1" xmlns="http://www.w3.org/2000/svg" xmlns:xlink="http://www.w3.org/1999/xlink" x="0px" y="0px"
	 width="24px" height="24px" viewBox="0 0 24 24" enable-background="new 0 0 24 24" xml:space="preserve">
<g>
	<path fill="#00B4DF" d="M0.708,14.226v1.552c0,0.28,0.093,0.537,0.25,0.743c0.224,0.294,0.578,0.484,0.977,0.484h3.2l9.293,4.909
		c0,0,1.227,0.153,1.227-1.227V6.493V3.895V3.313c0-1.381-1.227-1.227-1.227-1.227L5.134,6.994h-3.2
		c-0.678,0-1.227,0.549-1.227,1.227v3.406L0.708,14.226L0.708,14.226L0.708,14.226z"/>
	<polygon fill="#00B4DF" points="18,11.083 23.292,11.059 23.292,12.893 18,12.917 	"/>
	
		<rect x="17.035" y="4.585" transform="matrix(-0.9224 0.3863 -0.3863 -0.9224 40.2857 2.9087)" fill="#00B4DF" width="5.63" height="1.834"/>
	
		<rect x="17.034" y="17.486" transform="matrix(-0.9254 -0.3791 0.3791 -0.9254 31.2418 42.9574)" fill="#00B4DF" width="5.631" height="1.834"/>
</g>
</svg>
