<?xml version="1.0" encoding="utf-8"?>
<!-- Generator: Adobe Illustrator 17.0.0, SVG Export Plug-In . SVG Version: 6.00 Build 0)  -->
<!DOCTYPE svg PUBLIC "-//W3C//DTD SVG 1.1//EN" "http://www.w3.org/Graphics/SVG/1.1/DTD/svg11.dtd">
<svg version="1.1" id="Layer_1" xmlns="http://www.w3.org/2000/svg" xmlns:xlink="http://www.w3.org/1999/xlink" x="0px" y="0px"
	 width="24px" height="24px" viewBox="0 0 24 24" enable-background="new 0 0 24 24" xml:space="preserve">
<g>
	<g>
		<g>
			<g>
				<path fill="#00B4DF" d="M6.465,6.183c-0.497,0.236-0.903,0.88-0.903,1.43v8.774c0,0.55,0.406,1.193,0.903,1.43l7.989,3.801
					c0.497,0.236,0.903-0.02,0.903-0.57l0.001-18.094c0-0.55-0.406-0.807-0.903-0.57L6.465,6.183z"/>
			</g>
		</g>
	</g>
	<g>
		<g>
			<g>
				<path fill="#00B4DF" d="M1.539,7.588c0-0.55,0.45-1,1-1h0.769c0.55,0,1,0.45,1,1v8.824c0,0.55-0.45,1-1,1H2.539
					c-0.55,0-1-0.45-1-1V7.588z"/>
			</g>
		</g>
	</g>
	<path fill="#00B4DF" d="M4.616,12"/>
	<path fill="#00B4DF" d="M19.495,19.17l-1.034-1.034c3.384-3.384,3.384-8.89,0-12.274l1.034-1.034
		C23.449,8.783,23.449,15.217,19.495,19.17z"/>
	<path fill="#00B4DF" d="M17.494,17.054L16.46,16.02c2.217-2.217,2.217-5.824,0-8.041l1.034-1.034
		C20.281,9.733,20.281,14.267,17.494,17.054z"/>
</g>
</svg>
