<?xml version="1.0" encoding="utf-8"?>
<!-- Generator: Adobe Illustrator 17.0.0, SVG Export Plug-In . SVG Version: 6.00 Build 0)  -->
<!DOCTYPE svg PUBLIC "-//W3C//DTD SVG 1.1//EN" "http://www.w3.org/Graphics/SVG/1.1/DTD/svg11.dtd">
<svg version="1.1" id="Layer_1" xmlns="http://www.w3.org/2000/svg" xmlns:xlink="http://www.w3.org/1999/xlink" x="0px" y="0px"
	 width="24px" height="24px" viewBox="0 0 24 24" enable-background="new 0 0 24 24" xml:space="preserve">
<g opacity="0.75">
	<g>
		<polygon fill="#0099CE" points="5.253,6.784 5.253,17.215 14.736,21.727 14.736,2.273 		"/>
	</g>
	<g>
		<rect x="1.358" y="6.761" fill="#0099CE" width="2.681" height="10.479"/>
	</g>
	<path fill="#0099CE" stroke="#000000" stroke-width="5" stroke-miterlimit="10" d="M3.959,12"/>
	<path fill="#0099CE" d="M19.178,20.355l-1.034-1.034c4.037-4.037,4.037-10.606,0-14.643l1.034-1.034
		c2.234,2.233,3.464,5.201,3.464,8.355C22.642,15.155,21.412,18.122,19.178,20.355z"/>
	<path fill="#0099CE" d="M16.819,17.965l-1.034-1.034c2.719-2.719,2.719-7.143,0-9.863l1.034-1.034
		c1.595,1.595,2.473,3.713,2.473,5.965S18.414,16.371,16.819,17.965z"/>
</g>
</svg>
