<?xml version="1.0" encoding="utf-8"?>
<!-- Generator: Adobe Illustrator 17.0.0, SVG Export Plug-In . SVG Version: 6.00 Build 0)  -->
<!DOCTYPE svg PUBLIC "-//W3C//DTD SVG 1.1//EN" "http://www.w3.org/Graphics/SVG/1.1/DTD/svg11.dtd">
<svg version="1.1" id="Layer_1" xmlns="http://www.w3.org/2000/svg" xmlns:xlink="http://www.w3.org/1999/xlink" x="0px" y="0px"
	 width="24px" height="24px" viewBox="0 0 24 24" enable-background="new 0 0 24 24" xml:space="preserve">
<g>
	<circle opacity="0.75" fill="#00A0BA" enable-background="new    " cx="12" cy="12" r="11.167"/>
	<path opacity="0.75" fill="#00FF67" d="M4.881,14.174c-0.783-0.435-1.44-1.024-2.29-2.582S3.083,6.37,3.629,5.328
		s7.056-4.953,8.463-2.14c0.604,1.207-1.751,0.346-2.545,1.83c-0.658,1.23,0.658,0.928,1.516,2.215
		c1.389,2.083,0.137,2.363-1.629,2.924s-2.817,1.793-3.417,2.994c-0.55,1.1,6.439,5.147,7.774,6.774
		c1.334,1.626-3,2.615-5.273,2.483c-2.273-0.132-2.298-5.283-2.513-6.926C6.004,15.481,5.664,14.609,4.881,14.174z M16.438,2.359
		c-0.284,0.987,0.112,5.253,1.408,5.583c1.296,0.33,1.52-1.867,2.401-1.313s1.597,1.126,0.822,3.151s-3.563,9.973-1.489,8.685
		c2.074-1.288,2.462-2.981,2.619-5.403c0.158-2.422,0.81-3.274-0.473-5.618s-2.417-3.381-4.022-4.542
		C16.099,1.74,16.438,2.359,16.438,2.359z"/>
</g>
</svg>
