<?xml version="1.0" encoding="utf-8"?>
<!-- Generator: Adobe Illustrator 17.0.0, SVG Export Plug-In . SVG Version: 6.00 Build 0)  -->
<!DOCTYPE svg PUBLIC "-//W3C//DTD SVG 1.1//EN" "http://www.w3.org/Graphics/SVG/1.1/DTD/svg11.dtd">
<svg version="1.1" id="Layer_1" xmlns="http://www.w3.org/2000/svg" xmlns:xlink="http://www.w3.org/1999/xlink" x="0px" y="0px"
	 width="24px" height="24px" viewBox="0 0 24 24" enable-background="new 0 0 24 24" xml:space="preserve">
<g opacity="0.75">
	<g>
		<polygon fill="#0099CE" points="5.656,6.626 5.656,17.373 15.426,22.022 15.426,1.978 		"/>
	</g>
	<g>
		<rect x="1.644" y="6.602" fill="#0099CE" width="2.762" height="10.796"/>
	</g>
	<path fill="#0099CE" d="M4.226,12"/>
	<path fill="#0099CE" d="M18.788,20.609l-1.065-1.065c4.159-4.159,4.159-10.927,0-15.086l1.065-1.065
		C21.089,5.693,22.356,8.75,22.356,12C22.356,15.25,21.089,18.307,18.788,20.609z"/>
	<path fill="#0099CE" d="M17.281,18.146l-1.065-1.065c2.801-2.802,2.802-7.36,0-10.161l1.065-1.065
		C18.924,7.497,19.829,9.68,19.829,12S18.924,16.503,17.281,18.146z"/>
</g>
</svg>
